<svg xmlns="http://www.w3.org/2000/svg" viewBox="0 0 69.37 69.33"><defs><style>.cls-1{fill:#fff;}</style></defs><title>insta</title><g id="Capa_2" data-name="Capa 2"><g id="Capa_1-2" data-name="Capa 1"><path class="cls-1" d="M0,34.5c.18-6.43.21-12.87.59-19.29C1.13,6.35,6.75.49,15.61.26q19.22-.51,38.44,0c9,.24,14.83,6.06,15.07,15q.51,19.21,0,38.45c-.24,8.94-6.1,14.58-15.05,15.09a338,338,0,0,1-38.59,0c-5.57-.32-10.2-2.64-13-7.8A22.09,22.09,0,0,1,.34,50.64c-.08-5.38,0-10.76,0-16.14Zm56.62,0a21.75,21.75,0,1,0-21.8,21.76A21.7,21.7,0,0,0,56.62,34.48Zm6-22.55a5.07,5.07,0,1,0-5.21,5A5,5,0,0,0,62.57,11.93Z"/><path class="cls-1" d="M34.79,48.62A14.13,14.13,0,1,1,49,34.62,14.15,14.15,0,0,1,34.79,48.62Z"/></g></g></svg>