<svg xmlns="http://www.w3.org/2000/svg" viewBox="0 0 71.08 71.14"><defs><style>.cls-1{fill:#fff;}</style></defs><title>whatsapp</title><g id="Capa_2" data-name="Capa 2"><g id="Capa_1-2" data-name="Capa 1"><path class="cls-1" d="M2.69,68.93c1.09-4,2.06-7.68,3.14-11.37a3.64,3.64,0,0,0-.45-3.24A35.47,35.47,0,0,1,18.3,4.51C39.71-7.53,67,5.75,70.66,30a35.61,35.61,0,0,1-53.52,36,3,3,0,0,0-2-.31C11,66.72,7,67.8,2.69,68.93ZM46.74,56.12a15.8,15.8,0,0,0,2-.14c5-1,8.66-3.86,8.47-9.19a2.23,2.23,0,0,0-1-1.63c-2.76-1.43-5.59-2.73-8.39-4.07a2,2,0,0,0-2.75.76c-.9,1.29-2,2.46-3,3.7a1.81,1.81,0,0,1-2.35.54A29.26,29.26,0,0,1,25.27,33.61a1.8,1.8,0,0,1,.21-2.38A23.48,23.48,0,0,0,27.88,28a2.93,2.93,0,0,0,.29-2.17c-1.05-2.83-2.23-5.61-3.45-8.37A3,3,0,0,0,23.48,16c-1.44-.75-4.6-.17-5.77,1a12.06,12.06,0,0,0-3.57,11.71c.8,3.89,3,7.07,5.32,10.16C24,44.84,29.22,50,36.15,53.08,39.53,54.59,43,56.1,46.74,56.12Z"/></g></g></svg>